<?xml version="1.0" encoding="UTF-8"?>
<svg width="125px" height="125px" viewBox="0 0 125 125" version="1.1" xmlns="http://www.w3.org/2000/svg" xmlns:xlink="http://www.w3.org/1999/xlink">
    <title>Logo PC color</title>
    <g id="Page-1" stroke="none" stroke-width="1" fill="none" fill-rule="evenodd">
        <g id="Logo-PC-color" fill-rule="nonzero">
            <path d="M125,0 L125,62.4 C90.4,62.4 62.4,90.4 62.4,125 L0,125 C0,56 56,0 125,0 Z" id="XMLID_4705_" fill="#E1001A"></path>
            <g id="XMLID_2910_" transform="translate(38.797317, 21.700000)" fill="#FFFFFF">
                <g id="XMLID_202_" transform="translate(-0.000000, 0.000000)">
                    <path d="M28.5026831,9.7 L28.5026831,13.7 C28.5026831,14.1 28.5026831,14.2 28.7026831,14.3 L31.2026831,15.6 L31.2026831,15.6 L23.4026831,15.6 L23.4026831,15.6 L25.1026831,14.4 C25.3026831,14.2 25.3026831,14.2 25.3026831,13.9 L25.3026831,1.7 C25.3026831,1.4 25.3026831,1.4 25.1026831,1.2 L23.4026831,-7.10542736e-15 L23.4026831,-7.10542736e-15 L30.6026831,-7.10542736e-15 C33.7026831,-7.10542736e-15 36.3026831,1.3 36.3026831,4.7 C36.3026831,8 33.7026831,9.6 30.2026831,9.6 L28.5026831,9.6 L28.5026831,9.7 Z M28.5026831,9.3 L29.8026831,9.3 C31.6026831,9.3 33.0026831,8 33.0026831,4.8 C33.0026831,1.9 31.7026831,0.4 29.9026831,0.4 L28.9026831,0.4 C28.6026831,0.4 28.5026831,0.5 28.5026831,0.8 L28.5026831,9.3 Z" id="XMLID_203_"></path>
                    <path d="M47.7026831,14 C47.7026831,14.3 47.7026831,14.4 47.9026831,14.5 L49.2026831,15.6 L49.2026831,15.6 L44.8026831,15.6 L44.8026831,13.1 C44.2026831,14.7 43.1026831,15.7 41.5026831,15.7 C39.5026831,15.7 38.3026831,14.2 38.3026831,11.2 C38.3026831,9.8 38.3026831,8.1 38.3026831,6.3 C38.3026831,6 38.3026831,5.9 38.1026831,5.8 L36.8026831,4.7 L36.8026831,4.7 L41.2026831,4.7 C41.2026831,4.8 41.2026831,10 41.2026831,10.6 C41.2026831,13 41.6026831,14.3 43.0026831,14.3 C43.8026831,14.3 44.4026831,13.7 44.9026831,12.9 L44.9026831,6.4 C44.9026831,6.1 44.9026831,6 44.7026831,5.9 L43.4026831,4.8 L43.4026831,4.8 L47.8026831,4.8 L47.8026831,14 L47.7026831,14 Z" id="XMLID_206_"></path>
                    <path d="M56.3026831,6.1 C55.4026831,6.1 54.7026831,6.7 54.3026831,7.5 L54.3026831,14.2 C54.3026831,14.4 54.3026831,14.5 54.5026831,14.7 L55.8026831,15.7 L55.8026831,15.7 L49.9026831,15.7 L49.9026831,15.7 L51.2026831,14.7 C51.4026831,14.5 51.4026831,14.5 51.4026831,14.2 L51.4026831,6.5 C51.4026831,6.2 51.4026831,6.1 51.2026831,6 L49.9026831,4.9 L49.9026831,4.9 L54.2026831,4.9 L54.2026831,7.3 C54.7026831,5.5 55.9026831,4.6 57.6026831,4.6 C59.7026831,4.6 60.9026831,6.1 60.9026831,9.1 C60.9026831,10.3 60.9026831,12.4 60.9026831,14.2 C60.9026831,14.5 60.9026831,14.5 61.1026831,14.7 L62.4026831,15.7 L62.4026831,15.7 L56.5026831,15.7 L56.5026831,15.7 L57.7026831,14.7 C57.9026831,14.5 58.0026831,14.4 58.0026831,14.2 C58.0026831,14 58.1026831,10.7 58.1026831,9.7 C58.1026831,7.3 57.6026831,6.1 56.3026831,6.1 Z" id="XMLID_208_"></path>
                    <path d="M66.8026831,12.8 C66.8026831,13.8 67.2026831,14.4 68.0026831,14.4 C68.7026831,14.4 69.3026831,13.9 69.5026831,13.3 L69.5026831,13.3 C69.3026831,14.6 68.4026831,15.8 66.5026831,15.8 C64.8026831,15.8 63.9026831,14.9 63.9026831,13 L63.9026831,5.1 L62.5026831,5.1 L62.5026831,4.7 L63.6026831,4.7 C63.9026831,4.7 64.0026831,4.7 64.2026831,4.4 L66.6026831,1 L66.6026831,1 L66.6026831,4.7 L69.6026831,4.7 L69.6026831,5.1 L66.6026831,5.1 L66.6026831,12.8 L66.8026831,12.8 Z" id="XMLID_210_"></path>
                    <path d="M76.3026831,7.8 L76.3026831,7.8 C76.3026831,6.1 75.7026831,4.9 74.3026831,4.9 C73.8026831,4.9 73.8026831,4.9 73.6026831,5.2 L72.0026831,8.3 L72.0026831,8.3 L70.8026831,5.3 C72.2026831,4.8 73.5026831,4.5 74.9026831,4.5 C76.3026831,4.5 77.3026831,4.7 78.0026831,5.4 C78.6026831,6.1 79.0026831,7.2 79.0026831,9 L79.0026831,9.4 L78.9026831,12.9 C78.9026831,13.8 79.1026831,14.3 79.6026831,14.3 C79.9026831,14.3 80.2026831,14.1 80.3026831,13.8 L80.3026831,13.8 C80.3026831,14 80.3026831,14.3 80.1026831,14.6 C79.8026831,15.3 79.1026831,15.8 78.2026831,15.8 C77.1026831,15.8 76.2026831,15.1 76.2026831,13.5 C75.8026831,14.9 74.6026831,15.8 73.2026831,15.8 C71.6026831,15.8 70.2026831,14.7 70.2026831,12.8 C70.2026831,10.6 72.1026831,9.5 73.9026831,9.5 C74.7026831,9.5 75.6026831,9.7 76.2026831,10.2 L76.3026831,7.8 Z M73.0026831,12.5 C73.0026831,13.7 73.7026831,14.4 74.5026831,14.4 C75.1026831,14.4 75.8026831,14 76.2026831,13.4 L76.2026831,10.4 C75.8026831,10.3 75.5026831,10.2 75.1026831,10.2 C73.8026831,10.1 73.0026831,11.2 73.0026831,12.5 Z" id="XMLID_212_"></path>
                    <path d="M7.30268314,18.4 C8.70268314,18.4 10.2026831,18.5 11.7026831,18.9 L11.7026831,23.9 L11.7026831,23.9 L8.90268314,19.3 C8.70268314,19 8.60268314,18.9 8.20268314,18.9 C8.00268314,18.9 7.80268314,18.9 7.60268314,18.9 C4.60268314,18.9 3.50268314,22 3.50268314,26.6 C3.50268314,31.4 4.70268314,34.3 7.70268314,34.3 C7.90268314,34.3 8.10268314,34.3 8.30268314,34.3 C8.70268314,34.3 8.80268314,34.2 9.00268314,33.9 L11.8026831,29.1 L11.8026831,29.1 L11.8026831,34.3 C10.4026831,34.6 8.80268314,34.7 7.60268314,34.7 C2.30268314,34.7 0.00268314434,31.4 0.00268314434,26.7 C-0.0973168557,21.7 2.60268314,18.4 7.30268314,18.4 Z" id="XMLID_215_"></path>
                    <path d="M19.5026831,26.5 L19.5026831,26.5 C19.5026831,24.8 18.9026831,23.6 17.5026831,23.6 C17.0026831,23.6 17.0026831,23.6 16.8026831,23.9 L15.2026831,27 L15.2026831,27 L14.0026831,24 C15.4026831,23.5 16.7026831,23.2 18.1026831,23.2 C19.5026831,23.2 20.5026831,23.4 21.2026831,24.1 C21.8026831,24.8 22.2026831,25.9 22.2026831,27.7 L22.2026831,28.1 L22.1026831,31.6 C22.1026831,32.5 22.3026831,33 22.8026831,33 C23.1026831,33 23.4026831,32.8 23.5026831,32.5 L23.5026831,32.5 C23.5026831,32.7 23.5026831,33 23.3026831,33.3 C23.0026831,34 22.3026831,34.5 21.4026831,34.5 C20.3026831,34.5 19.4026831,33.8 19.4026831,32.2 C19.0026831,33.6 17.8026831,34.5 16.4026831,34.5 C14.8026831,34.5 13.4026831,33.4 13.4026831,31.5 C13.4026831,29.3 15.3026831,28.2 17.1026831,28.2 C17.9026831,28.2 18.8026831,28.4 19.4026831,28.9 L19.5026831,26.5 Z M16.2026831,31.2 C16.2026831,32.4 16.9026831,33.1 17.7026831,33.1 C18.3026831,33.1 19.0026831,32.7 19.4026831,32.1 L19.4026831,29.1 C19.0026831,29 18.7026831,28.9 18.3026831,28.9 C17.0026831,28.8 16.2026831,29.9 16.2026831,31.2 Z" id="XMLID_217_"></path>
                    <path d="M28.5026831,32.6 C28.5026831,32.8 28.5026831,33 28.8026831,33.1 L31.1026831,34.2 L31.1026831,34.2 L24.2026831,34.2 L24.2026831,34.2 L25.5026831,33.2 C25.7026831,33 25.7026831,33 25.7026831,32.7 L25.7026831,25 C25.7026831,24.7 25.7026831,24.6 25.5026831,24.5 L24.2026831,23.4 L24.2026831,23.4 L28.5026831,23.4 L28.5026831,26.5 C28.8026831,24.9 29.9026831,23.2 31.7026831,23.2 C32.2026831,23.2 32.7026831,23.4 33.0026831,23.7 L31.8026831,27.1 L31.8026831,27.1 L30.4026831,24.8 C30.3026831,24.7 30.2026831,24.7 30.1026831,24.7 C29.3026831,25.1 28.9026831,25.9 28.5026831,26.8 L28.5026831,32.6 Z" id="XMLID_220_"></path>
                    <path d="M37.7026831,32.6 C37.7026831,32.8 37.7026831,33 38.0026831,33.1 L40.3026831,34.2 L40.3026831,34.2 L33.4026831,34.2 L33.4026831,34.2 L34.7026831,33.2 C34.9026831,33 34.9026831,33 34.9026831,32.7 L34.9026831,25 C34.9026831,24.7 34.9026831,24.6 34.7026831,24.5 L33.4026831,23.4 L33.4026831,23.4 L37.7026831,23.4 L37.7026831,26.5 C38.0026831,24.9 39.1026831,23.2 40.9026831,23.2 C41.4026831,23.2 41.9026831,23.4 42.2026831,23.7 L41.0026831,27.1 L41.0026831,27.1 L39.6026831,24.8 C39.5026831,24.7 39.4026831,24.7 39.3026831,24.7 C38.5026831,25.1 38.1026831,25.9 37.7026831,26.8 L37.7026831,32.6 L37.7026831,32.6 Z" id="XMLID_222_"></path>
                    <path d="M45.5026831,28.1 L45.5026831,28.5 C45.5026831,31.5 46.9026831,32.9 48.7026831,32.9 C50.1026831,32.9 51.4026831,32.2 52.2026831,30.5 L52.2026831,30.5 C51.7026831,33.2 50.1026831,34.6 47.6026831,34.6 C45.0026831,34.6 42.6026831,32.9 42.6026831,29.1 C42.6026831,24.9 45.2026831,23.4 47.7026831,23.4 C49.9026831,23.4 52.2026831,24.6 52.2026831,27.7 C52.2026831,27.9 52.2026831,28.1 52.2026831,28.3 L45.5026831,28.3 L45.5026831,28.1 Z M45.5026831,27.7 L49.5026831,27.7 C49.5026831,27.5 49.5026831,27.4 49.5026831,27.3 C49.5026831,24.8 48.9026831,23.6 47.7026831,23.6 C46.3026831,23.6 45.6026831,25 45.5026831,27.7 Z" id="XMLID_224_"></path>
                    <path d="M57.1026831,31.5 C57.1026831,32.5 57.5026831,33.1 58.3026831,33.1 C59.0026831,33.1 59.6026831,32.6 59.8026831,32 L59.8026831,32 C59.6026831,33.3 58.7026831,34.5 56.8026831,34.5 C55.1026831,34.5 54.2026831,33.6 54.2026831,31.7 L54.2026831,23.8 L52.8026831,23.8 L52.8026831,23.4 L53.9026831,23.4 C54.2026831,23.4 54.3026831,23.4 54.5026831,23.1 L56.9026831,19.7 L56.9026831,19.7 L56.9026831,23.4 L59.9026831,23.4 L59.9026831,23.8 L56.9026831,23.8 L56.9026831,31.5 L57.1026831,31.5 Z" id="XMLID_227_"></path>
                    <path d="M66.6026831,26.5 L66.6026831,26.5 C66.6026831,24.8 66.0026831,23.6 64.6026831,23.6 C64.1026831,23.6 64.1026831,23.6 63.9026831,23.9 L62.3026831,27 L62.3026831,27 L61.1026831,24 C62.5026831,23.5 63.8026831,23.2 65.2026831,23.2 C66.6026831,23.2 67.6026831,23.4 68.3026831,24.1 C68.9026831,24.8 69.3026831,25.9 69.3026831,27.7 L69.3026831,28.1 L69.2026831,31.6 C69.2026831,32.5 69.4026831,33 69.9026831,33 C70.2026831,33 70.5026831,32.8 70.6026831,32.5 L70.6026831,32.5 C70.6026831,32.7 70.6026831,33 70.4026831,33.3 C70.1026831,34 69.4026831,34.5 68.5026831,34.5 C67.4026831,34.5 66.5026831,33.8 66.5026831,32.2 C66.1026831,33.6 64.9026831,34.5 63.5026831,34.5 C61.9026831,34.5 60.5026831,33.4 60.5026831,31.5 C60.5026831,29.3 62.4026831,28.2 64.2026831,28.2 C65.0026831,28.2 65.9026831,28.4 66.5026831,28.9 L66.6026831,26.5 Z M63.3026831,31.2 C63.3026831,32.4 64.0026831,33.1 64.8026831,33.1 C65.4026831,33.1 66.1026831,32.7 66.5026831,32.1 L66.5026831,29.1 C66.1026831,29 65.8026831,28.9 65.4026831,28.9 C64.1026831,28.8 63.3026831,29.9 63.3026831,31.2 Z" id="XMLID_229_"></path>
                    <path d="M75.3026831,34.5 C74.1026831,34.5 72.7026831,34.3 71.5026831,33.8 L72.6026831,30.5 L72.6026831,30.5 L74.1026831,33.8 C74.2026831,34 74.2026831,34 74.5026831,34.1 C74.7026831,34.1 75.0026831,34.2 75.3026831,34.2 C76.7026831,34.2 77.5026831,33.3 77.5026831,32.3 C77.5026831,31.2 76.7026831,30.8 75.4026831,30.2 L74.0026831,29.6 C72.8026831,29 71.9026831,28.1 71.9026831,26.5 C71.9026831,24.5 73.7026831,23.2 76.0026831,23.2 C77.1026831,23.2 78.4026831,23.4 79.6026831,23.8 L78.6026831,26.8 L78.6026831,26.8 L77.0026831,23.9 C76.9026831,23.7 76.7026831,23.6 76.3026831,23.6 L76.0026831,23.6 C75.0026831,23.6 74.1026831,24.2 74.1026831,25.4 C74.1026831,26.4 74.9026831,26.9 76.0026831,27.4 L77.5026831,28 C78.8026831,28.6 80.0026831,29.3 80.0026831,31 C79.8026831,33.3 77.8026831,34.5 75.3026831,34.5 Z" id="XMLID_232_"></path>
                </g>
            </g>
        </g>
    </g>
</svg>