<svg xmlns="http://www.w3.org/2000/svg" width="24" height="24" viewBox="0 0 24 24">
    <g fill="none" fill-rule="evenodd">
        <g fill="#000" fill-rule="nonzero">
            <g transform="translate(-707 -6619) translate(707 6619)">
                <path d="M20.44 0H3.56C1.596.005.005 1.596 0 3.56v16.88c.005 1.964 1.596 3.555 3.56 3.56h16.88c1.964-.005 3.555-1.596 3.56-3.56V3.56C23.995 1.596 22.404.005 20.44 0zM22 20.44c0 .862-.698 1.56-1.56 1.56H3.56C2.698 22 2 21.302 2 20.44V3.56C2 2.698 2.698 2 3.56 2h16.88c.862 0 1.56.698 1.56 1.56v16.88z"/>
                <path d="M12 6c-3.314 0-6 2.686-6 6s2.686 6 6 6 6-2.686 6-6c0-1.591-.632-3.117-1.757-4.243C15.117 6.632 13.59 6 12 6zm0 10c-2.21 0-4-1.79-4-4s1.79-4 4-4 4 1.79 4 4c0 1.06-.421 2.078-1.172 2.828C14.078 15.578 13.061 16 12 16z"/>
                <circle cx="18.5" cy="5.5" r="1.5"/>
            </g>
        </g>
    </g>
</svg>
